<svg height="512" viewBox="0 0 64 64" width="512" xmlns="http://www.w3.org/2000/svg"><g id="shopping_online" data-name="shopping online"><path d="m7 3-4 10h2v38a2.006 2.006 0 0 0 2 2h21.84l1.16 2 3.46-2h23.54a2.006 2.006 0 0 0 2-2v-38h2l-4-10zm16.58 43 .92-.53.3.53zm30.3-25.88a2.993 2.993 0 0 0 2.12.88v25h-27.12l.45-.16 16.09-5.77a.992.992 0 0 0 .53-1.44l-2.4-4.16a3 3 0 1 0 -3-5.19l-2.4-4.16a.993.993 0 0 0 -1.51-.26l-16.14 13.69 1 1.73-2.6 1.5a.987.987 0 0 0 -.36 1.36l1.65 2.86h-12.19v-25a3 3 0 0 0 3-3v-5h6v5a3 3 0 0 0 6 0v-5h6v5a3 3 0 0 0 6 0v-5h6v5a3 3 0 0 0 6 0v-5h6v5a2.993 2.993 0 0 0 .88 2.12z" fill="#78b9eb"/><path d="m36 59h-8v-2h-25l2 4h54l2-4h-25z" fill="#78b9eb"/><g fill="#1a6fb0"><path d="m61.851 56.475a1 1 0 0 0 -.851-.475h-25a1 1 0 0 0 -1 1v1h-6v-1a1 1 0 0 0 -1-1h-25a1 1 0 0 0 -.895 1.447l2 4a1 1 0 0 0 .895.553h54a1 1 0 0 0 .9-.553l2-4a1 1 0 0 0 -.049-.972zm-56.233 3.525-1-2h22.382v1a1 1 0 0 0 1 1zm52.764 0h-22.382a1 1 0 0 0 1-1v-1h22.382z"/><path d="m36.656 29.247a1 1 0 0 0 -.818.223l-10.852 9.2 1.294 1.53 9.938-8.428 3.608 6.248 1.732-1-4.207-7.287a1 1 0 0 0 -.695-.486z"/><path d="m44 24h2v4h-2z"/><path d="m46.464 27h4v2h-4z" transform="matrix(.866 -.5 .5 .866 -7.507 27.978)"/><path d="m47.464 30h2v4h-2z" transform="matrix(.5 -.866 .866 .5 -3.48 57.973)"/><path d="m3 14h1v37a3 3 0 0 0 3 3h21.268l.866 1.5a1 1 0 0 0 .607.466 1.035 1.035 0 0 0 .259.034 1 1 0 0 0 .5-.134l3.232-1.866h23.268a3 3 0 0 0 3-3v-37h1a1 1 0 0 0 .929-1.371l-4-10a1 1 0 0 0 -.929-.629h-50a1 1 0 0 0 -.929.629l-4 10a1 1 0 0 0 .929 1.371zm7 0v4a2 2 0 0 1 -4 0v-4zm45 7.858v23.142h-20.371l11.132-3.985a2 2 0 0 0 1.059-2.883l-1.972-3.415a3.989 3.989 0 0 0 -1.76-6.706 3.945 3.945 0 0 0 -2.1.022l-1.971-3.414a2 2 0 0 0 -3.026-.525l-16.138 13.689a1 1 0 0 0 -.219 1.263l.5.865-1.732 1a2 2 0 0 0 -.731 2.733l.782 1.356h-9.453v-23.142a3.976 3.976 0 0 0 2-1.24 3.947 3.947 0 0 0 6 0 3.947 3.947 0 0 0 6 0 3.947 3.947 0 0 0 6 0 3.947 3.947 0 0 0 6 0 3.947 3.947 0 0 0 6 0 3.947 3.947 0 0 0 6 0 3.947 3.947 0 0 0 6 0 3.976 3.976 0 0 0 2 1.24zm-35.6 20.786 1.732-1 2 3.464-1.732 1zm6.547 3.339-4.166-7.214 15.5-13.15 7.8 13.512zm17.833-13.116-1.724-2.985a1.985 1.985 0 0 1 1.724 2.985zm6.22-12.867a2 2 0 0 1 -2-2v-4h4v4a2 2 0 0 1 -2 2zm-4-2a2 2 0 0 1 -4 0v-4h4zm-6 0a2 2 0 0 1 -4 0v-4h4zm-6 0a2 2 0 0 1 -4 0v-4h4zm-6 0a2 2 0 0 1 -4 0v-4h4zm-6 0a2 2 0 0 1 -4 0v-4h4zm-6 0a2 2 0 0 1 -4 0v-4h4zm-9 34a1 1 0 0 1 -1-1v-29.556a3.966 3.966 0 0 0 1 .414v24.142a1 1 0 0 0 1 1h11.608l.062.106a1.986 1.986 0 0 0 1.215.934 2.013 2.013 0 0 0 .52.068 1.986 1.986 0 0 0 1-.268l1.452-.84h.369l2.887 5zm23.366 1.634-3.4-5.89 1.914-.686 3.22 5.576zm26.634-1.634h-22.959l-2.886-5h24.845a1 1 0 0 0 1-1v-24.142a3.966 3.966 0 0 0 1-.414v29.556a1 1 0 0 1 -1 1zm1-34a2 2 0 0 1 -4 0v-4h4zm-50.323-14h48.646l3.2 8h-55.046z"/></g></g></svg>